<svg width="128" height="128" xmlns="http://www.w3.org/2000/svg">

 <g>
  <title>background</title>
  <rect fill="none" id="canvas_background" height="402" width="582" y="-1" x="-1"/>
 </g>
 <g>
  <title>Layer 1</title>
  <path fill="#5fbf00" id="svg_3" d="m85.263,46.490002l-30.778,30.776997l-11.681,-11.682999c-0.781002,-0.781998 -2.047001,-0.781998 -2.827999,-0.001999c-0.781002,0.781998 -0.781002,2.047997 0,2.829002l14.509998,14.513l33.605003,-33.607002c0.780998,-0.779003 0.780998,-2.046001 0,-2.827c-0.781006,-0.782001 -2.047005,-0.782001 -2.828003,0zm-21.231003,-32.619001c-27.641998,0 -50.128998,22.488001 -50.128998,50.126001c0.002,27.641998 22.490002,50.130997 50.130997,50.130997l0.004005,0c27.638,0 50.123001,-22.488998 50.123001,-50.130997c0,-27.639 -22.487,-50.126001 -50.129005,-50.126001zm0.006004,96.256998l-0.004005,0c-25.434998,0 -46.128996,-20.694 -46.130997,-46.130997c0,-25.434002 20.693001,-46.126001 46.128998,-46.126001s46.129005,20.692999 46.129005,46.126001c0,25.436996 -20.690002,46.130997 -46.123001,46.130997z"/>
 </g>
</svg>