<?xml version="1.0" encoding="UTF-8" standalone="no"?>
<!-- Created with Inkscape (http://www.inkscape.org/) -->

<svg
   xmlns:dc="http://purl.org/dc/elements/1.1/"
   xmlns:cc="http://creativecommons.org/ns#"
   xmlns:rdf="http://www.w3.org/1999/02/22-rdf-syntax-ns#"
   xmlns:svg="http://www.w3.org/2000/svg"
   xmlns="http://www.w3.org/2000/svg"
   xmlns:sodipodi="http://sodipodi.sourceforge.net/DTD/sodipodi-0.dtd"
   xmlns:inkscape="http://www.inkscape.org/namespaces/inkscape"
   width="407.53964"
   height="358.30313"
   id="svg7049"
   version="1.1"
   inkscape:version="0.48.4 r9939"
   sodipodi:docname="extinguisher.svg">
  <defs
     id="defs7051">
    <filter
       color-interpolation-filters="sRGB"
       inkscape:collect="always"
       id="filter8704-0-9">
      <feGaussianBlur
         inkscape:collect="always"
         stdDeviation="0.029709328"
         id="feGaussianBlur8706-1-7" />
    </filter>
  </defs>
  <sodipodi:namedview
     id="base"
     pagecolor="#ffffff"
     bordercolor="#666666"
     borderopacity="1.0"
     inkscape:pageopacity="0.0"
     inkscape:pageshadow="2"
     inkscape:zoom="1"
     inkscape:cx="560.79181"
     inkscape:cy="165.02623"
     inkscape:document-units="px"
     inkscape:current-layer="layer1"
     showgrid="false"
     fit-margin-top="0"
     fit-margin-left="0"
     fit-margin-right="0"
     fit-margin-bottom="0"
     inkscape:window-width="1920"
     inkscape:window-height="1061"
     inkscape:window-x="0"
     inkscape:window-y="0"
     inkscape:window-maximized="1" />
  <metadata
     id="metadata7054">
    <rdf:RDF>
      <cc:Work
         rdf:about="">
        <dc:format>image/svg+xml</dc:format>
        <dc:type
           rdf:resource="http://purl.org/dc/dcmitype/StillImage" />
        <dc:title></dc:title>
      </cc:Work>
    </rdf:RDF>
  </metadata>
  <g
     inkscape:label="Layer 1"
     inkscape:groupmode="layer"
     id="layer1"
     transform="translate(-99.275906,-117.6697)">
    <g
       id="g31453"
       transform="matrix(1.3147254,0,0,1.3147254,-109.9544,-971.5137)">
      <path
         style="color:#000000;fill:#ef2929;fill-opacity:1;fill-rule:nonzero;stroke:none;stroke-width:1;marker:none;visibility:visible;display:inline;overflow:visible;enable-background:accumulate"
         d="m -985.40625,469.21875 c -5.90347,10.95788 -10.99232,17.57882 -6.8125,23.8125 4.08083,-6.19967 0.8308,-7.46101 6.8125,-23.8125 z m -7.28125,10.875 c -7.955,8.46573 -5.59793,19.64628 2.03125,27.03125 5.76069,2.04082 -0.7964,11.52575 -0.5,17.28125 1.03345,20.06481 25.58656,50.14906 7.9375,59.75 -8.07279,4.3915 -16.38829,-9.90792 -20.96875,-17.875 -5.8326,-10.14504 -2.7124,-23.38653 -6.2813,-34.53125 -5.7154,-9.87387 -10.5513,-27.40155 -10.4687,-37.15625 -7.3775,13.35624 1.0273,22.04662 1.4063,33.15625 0.097,13.60775 4.1269,29.641 -3.9063,40.625 -2.3279,3.18302 -7.3996,6.51975 -10.875,4.65625 -0.5825,-0.31235 -1.125,-0.65416 -1.625,-1.03125 3.4974,-7.84354 1.578,-21.05674 0.75,-38.21875 -1.5885,16.58642 -4.0719,24.1586 -5.875,29.5625 -1.9997,-8.54942 0.1691,-20.14444 -0.375,-28.90625 -0.7009,-11.28589 11.0577,-18.461 1.9687,-33.875 4.6183,13.68943 -7.2181,27.40075 -7.75,34.09375 -1.0912,13.73576 0.069,24.32141 -7.9062,31.78125 -1.4083,1.31721 -3.9523,1.87238 -5.6875,1.03125 -9.4095,-4.56135 -10.4921,-18.0127 -14.8437,-27.625 18.9621,-15.97316 -8.6308,-14.52539 -1.5,-35.4375 -11.4682,23.70425 6.0314,20.52159 0.5937,33.5625 -2.6143,-5.2679 -7.298,-13.7542 -7.125,-15.8125 -6.4669,7.88827 0.9423,16.51289 1.8125,24.71875 1.1744,11.07587 7.2769,22.20851 5.1562,33.03125 -1.4601,7.4521 -2.9653,21.8304 -12.2812,16.25 -9.1269,-5.4671 -8.3617,-10.89055 -5.9062,-22 14.5042,-13.94323 -10.5151,-13.44577 -3.6876,-33.46875 -6.6004,13.64286 -3.6026,18.3577 -0.9062,22.40625 -5.4696,-3.38494 -13.8627,-4.95845 -16.9062,-10.15625 -3.1211,-5.33013 -3.2574,-11.92488 -4.5313,-17.96875 -0.6584,-3.12385 -1.4106,-8.17508 -1.9375,-11.6875 -0.1231,6.61839 -6.527,12.91405 -5.2188,19.40625 1.9746,9.7987 9.4537,18.54217 16.7188,24.875 10.07,8.89018 -8.0604,16.88335 -2,28.46875 6.0605,11.5854 -20.0633,7.3983 -12.9688,-2.1875 7.0946,-9.5858 3.1359,-18.48585 -5.6874,-21.9375 10.5396,6.8509 -3.1043,20.5787 -8.2188,24.75 -4.3687,3.56299 -3.3756,11.59921 -1.6462,14.96786 85.7154,0.002 171.43079,8.9e-4 257.1462,8.9e-4 9.99788,-6.173 -23.4322,-30.61189 9.71875,-42.4375 -13.56369,3.69602 -19.86802,7.9122 -22.5,12.25 -0.95164,-3.8543 5.05051,-10.55614 0.8125,-14.6875 -0.69003,-3.5224 -10.2322,-9.18247 -3.40625,-3.6875 3.92679,7.55942 -4.33355,23.92915 -11.8125,21.46875 -7.47902,-2.4604 -8.26111,-18.13298 -2.6875,-24.5625 5.57362,-6.42951 0.50543,-12.7946 1.53125,-20 0.75477,-5.0029 -11.62195,-13.13676 -3.84375,-5.96875 2.83496,9.64832 -5.61656,18.85847 -13.96875,23.25 -8.35213,4.39153 -17.57041,20.31605 -26.71875,15.5625 -7.29092,-3.78843 -0.92723,-16.42491 -2.0625,-24.5625 -1.44226,-10.33813 4.76548,-24.4558 -6.03125,-30.71875 -6.1784,-4.1312 5.06493,7.33211 3.71875,10.9375 -1.45134,3.88692 -6.77396,7.46685 -10.75,6.28125 -12.11157,-3.61154 -6.38169,-25.66521 -16.875,-33.9375 -6.72382,-5.04694 -7.56902,-13.909 -3.0625,-20.71875 z m -91,42.0625 c 0.1241,-0.15136 0.2406,-0.31795 0.375,-0.46875 -0.2349,0.008 -0.3508,0.18105 -0.375,0.46875 z m 13.9063,-29.21875 c -4.3409,11.73722 -8.4686,18.9107 -3.5,25.21875 3.1868,-6.67686 -0.1875,-7.8427 3.5,-25.21875 z m -42.6563,9.28125 c -6.2893,9.8788 -1.5046,20.04533 1.3125,29.625 -0.7655,4.8555 -4.7582,11.05761 1.2188,4.1875 8.2357,-9.05292 -8.129,-17.23904 -4.0626,-27.59375 0.2968,-2.12317 0.8422,-4.19136 1.5313,-6.21875 z m 140.625,5.84375 c 13.07949,11.49256 7.94927,11.29171 14.5,14.78125 -0.62015,-6.42934 -4.07119,-7.98668 -14.5,-14.78125 z m -23.59375,11.375 c -3.29636,8.45519 -6.78345,13.81812 -1.3125,17.4375 2.58696,-4.90073 -0.85083,-5.26713 1.3125,-17.4375 z M -1123.5625,519.5 c 0.054,0.13221 0.1091,0.27437 0.1563,0.40625 -0.05,-0.23272 -0.097,-0.38891 -0.125,-0.40625 -0.01,-0.005 -0.025,-0.0169 -0.031,0 z m 0.1563,0.40625 c 0.1199,0.56194 0.3158,1.87797 0.5312,3.3125 0.014,-1.10014 -0.1303,-2.19084 -0.5312,-3.3125 z m 194.87495,6.46875 c 7.20639,10.04322 4.23803,11.85295 8.6875,15.15625 3.37187,-5.62691 -2.06332,-8.95325 -8.6875,-15.15625 z m -71.0625,0.5625 c -12.62345,26.09238 9.87268,19.59599 -1.78125,38.03125 25.22494,-18.80201 -5.7175,-16.03977 1.78125,-38.03125 z m 54.9375,2.25 c -12.62348,26.09238 9.87256,19.62725 -1.78125,38.0625 25.22489,-18.80201 -5.71755,-16.07103 1.78125,-38.0625 z"
         transform="translate(1334.6041,422.99871)"
         id="path30564"
         inkscape:connector-curvature="0"
         sodipodi:nodetypes="cccccssscccsccccsccscccccccsccccscccsscsccccccssccssscssccccccccccccccccccccccccccccccccccc" />
      <path
         style="fill:#ef2929;stroke:none"
         d="m 317.77709,933.81737 c 25.22495,-18.80201 -13.53628,-29.10574 -6.03748,-51.09722 -12.6235,26.09238 22.39203,23.78293 6.03748,51.09722 z"
         id="path30629"
         inkscape:connector-curvature="0"
         sodipodi:nodetypes="ccc" />
      <path
         sodipodi:nodetypes="ccsc"
         inkscape:connector-curvature="0"
         id="path30635"
         d="m 177.60997,1004.1474 c -8.84849,-21.32193 17.15978,-14.68141 23.11044,3.0737 3.05422,-12.3326 -11.00377,-20.61455 -19.47073,-19.87509 -5.69335,0.49722 -11.90369,8.83293 -3.63971,16.80139 z"
         style="color:#000000;fill:#ef2929;fill-opacity:1;fill-rule:nonzero;stroke:none;stroke-width:1px;marker:none;visibility:visible;display:inline;overflow:visible;enable-background:accumulate" />
      <path
         style="fill:#fcaf3e;stroke:none"
         d="m -986.71875,527.4375 c 3.36375,15.60549 36.53453,81.1605 -9.6875,59 -8.11855,-3.8924 -14.34395,-15.69163 -14.87495,-25.21875 -0.093,-3.07842 -2.3792,-22.99212 -3,-22.65625 -1.5279,0.8265 -2.4097,28.1543 -4.4063,29.96875 -3.4111,7.65579 -13.0991,12.64525 -21.0625,9.40625 -4.5774,-5.95036 -3.1553,-14.67092 -5.3125,-21.25 -2.136,6.94016 -6.1549,17.52566 -14.9063,16.875 -7.2717,-3.2438 -12.7247,-10.45548 -14.7812,-18.09375 1.9066,7.60393 3.7579,15.21488 5.2812,22.90625 3.4882,8.7464 -2.6809,16.99345 -9.25,22.15625 -6.2739,5.5688 -19.1314,3.4915 -21.4062,-5.125 -1.2629,-7.9673 4.6023,-15.30321 1.5938,-23.34375 1.7405,-5.84183 -13.829,-13.74073 -5.5313,-5.40625 7.679,6.06318 -0.7574,15.66305 -3.1875,22.53125 -0.9278,5.7735 0.066,15.51505 -6.1875,18.03125 l -7.5625,0 c -6.4298,-1.6542 -12.3536,-6.3552 -10.4375,-12.625 -3.4712,6.19856 -6.7041,11.26928 -7.1563,17.03125 l 250.2188,0 c -5.63303,-5.26674 -21.97919,-15.32186 -13.71875,-26.21875 -2.59156,0.911 -16.35386,7.7343 -20.90625,0.1875 -2.34175,-8.2049 3.25,-16.07479 3.25,-24.34375 2.33752,-11.26044 -3.07248,2.69107 -6.875,5.4375 -7.47315,2.54166 -12.90423,7.88832 -19.03125,12.90625 -7.20246,6.3629 -15.5137,-1.40971 -18.90625,-7.9375 -1.32622,-8.53053 2.51278,-27.8119 3.6875,-36.3125 -10.2942,22.08819 -21.90928,0.58139 -25.84375,-7.90625 z m -144.71875,67.15625 c 0.698,-1.24637 1.4295,-2.52066 2.125,-3.875 -1.0418,1.34476 -1.7476,2.64013 -2.125,3.875 z"
         transform="translate(1334.6041,422.99871)"
         id="path30651"
         inkscape:connector-curvature="0" />
      <path
         style="fill:#fce94f;stroke:none"
         d="m -1044.7188,572.1875 c 0,0 -9.1297,12.78125 -14.875,12.78125 -2.3733,0 -3.4549,-0.93265 -3.9062,-2.03125 -0.044,5.5552 -0.4857,16.198 -3.1562,19.25 -3.656,4.1783 -21.9224,5.7656 -31.0626,3.9375 -9.1401,-1.828 -6.2812,-16.96875 -6.2812,-16.96875 -3.9999,-0.8 -0.8411,8.6537 -2.3438,16.1875 -1.9624,9.8392 -26.9062,0 -26.9062,0 l 1.6562,6.28125 237.0938,0 c -3.86867,-2.26046 -12.93235,-4.56815 -14.4375,-5.5 -5.48413,-3.3949 -3.375,-13.3125 -3.375,-13.3125 0,0 -12.53833,2.0824 -21.15625,-1.3125 -8.61785,-3.3949 -1.3125,-10.6875 -1.3125,-10.6875 0,0 -22.45337,13.58025 -27.9375,10.96875 -3.72478,-1.7737 -3.9538,-6.69115 -3.71875,-9.65625 -0.85974,3.7775 -4.08264,11.1536 -16.375,15.125 -16.97464,5.4841 -34.2188,-20.125 -34.2187,-20.125 0,0 -22.4534,10.9686 -27.9376,7.3125 -5.484,-3.6561 0.25,-12.25 0.25,-12.25 z m 78.2813,9.9375 c 0.32744,-1.4388 0.34375,-2.375 0.34375,-2.375 0,0 -0.23273,0.9745 -0.34375,2.375 z m -97.0625,0.8125 c 0.016,-2.0502 0,-3.4375 0,-3.4375 0,0 -0.641,1.8768 0,3.4375 z"
         transform="translate(1334.6041,422.99871)"
         id="path30664"
         inkscape:connector-curvature="0" />
    </g>
  </g>
</svg>
