<svg id="Layer_1" data-name="Layer 1" xmlns="http://www.w3.org/2000/svg" viewBox="0 0 99.67 99.72"><defs><style>.cls-1{fill:#bfd6e0;}.cls-2{fill:#d0e7ef;}.cls-3{fill:#a3d1e8;}.cls-11,.cls-3{opacity:0.78;}.cls-4{fill:#daedf2;}.cls-5{fill:#8dc1d8;}.cls-12,.cls-13,.cls-15,.cls-6,.cls-7{fill:#fff;}.cls-6,.cls-8{opacity:0.25;}.cls-7{opacity:0.16;}.cls-8{fill:#6ea6b7;}.cls-9{fill:#86acce;opacity:0.33;}.cls-10{fill:#b3cfdd;}.cls-11{fill:#91c7e2;}.cls-12{opacity:0.42;}.cls-13{opacity:0.48;}.cls-14{fill:#e6e7e8;}.cls-15{opacity:0.52;}.cls-16{fill:#d0d2d3;}.cls-17{fill:#40b4d3;opacity:0.21;}.cls-18{fill:#6db3d1;}</style></defs><title>ice cube-R5</title><path class="cls-1" d="M7,11.16c2.92-1.78,9.5-2.84,12.86-3.71C21.66,7,29,5.1,30.56,4.58s2.21-1,4.88-2S40.1,2.54,42.24,1C43.83-.2,45,0.08,45.29.71c0.66,1.23,0,3.08-.07,4.28C45.16,6.73,46,8.8,46,10.55s-1.09,2.94-1.22,4.66c-0.17,2.11,1,3.74,1.3,5.68,0.19,1.26-.32,3-0.22,4.45,0.12,1.67.26,3.58,0.26,5.47,0,2.07-.46,3.87-0.59,5.75-0.14,2.11.88,4,.76,6.15-0.24,4.43-.17,8.77,0,13.29a10.58,10.58,0,0,1,0,4.37A3.84,3.84,0,0,1,44,63.08a24.6,24.6,0,0,0-6,3.77c-2.1,1.77-3.79,1.74-5.89,3.75-0.76.73-2.75,1.36-3.72,2-1.22.85-2.91,1.05-4.22,1.83C22,75.82,19.17,76.74,17,78.28c-1.53,1.11-2.24,2.32-4,2.92S11,82.6,9.43,84c-0.69.6-3.26,2.47-4.24,1.46s0.72-4.38-.3-7.81-0.57-7.41-.7-10c-0.11-2.14-.2-6.6-1.07-8.8S2.23,52.38,2,49.8,1.74,44.56,1.5,41.9c-0.23-2.51.41-5.2,0-7.5S-0.11,30.3.16,27.5c0.2-2.13.4-4.53,0.61-6.68A14.33,14.33,0,0,1,7,11.16Z" transform="translate(-0.12 -0.13)"/><path class="cls-2" d="M52.41,0.86a43.62,43.62,0,0,0,7.65.79c5.67,0,10.87,1.73,16.26,2,2.65,0.11,5.57-.09,7.92.4C88.63,4.9,99.79,9.64,99.79,15.58c0,5.36-.29,11.18-0.76,16.51-0.46,5.18.66,9.88-.41,15-1.14,5.4-.4,12.06-0.31,17.62-0.05,1.69,1.07,6.12-.22,7.31-0.85.78-4.68-.29-6.17-0.82s-2.83-.31-4.3-0.55-2.94-.89-4.36-1.22-4.11-.37-6.34-0.81-4-1.26-5.41-1.52c-2.38-.43-5-0.9-6.66-1.39a63.75,63.75,0,0,0-6.79-2c-1.67-.34-3.35-0.21-5-0.56-1.36-.29-2.71-1.07-4-1.37-3.54-.79-4.21-3.18-3.87-6.58,0.59-6-.85-12.65-0.85-17.14s0.55-5.53.62-7.93a27.91,27.91,0,0,0-.1-6.55c-0.19-1.22,0-2-.09-3.21-0.14-1.48.44-2-.07-3.29A16,16,0,0,1,44,10.86c0.09-1.87.65-3.74,0.47-5.61-0.08-.9-1.44-3.85-1.16-4.53C43.87-.51,50.85.6,52.41,0.86Z" transform="translate(-0.12 -0.13)"/><path class="cls-3" d="M6.12,84.13c2.2-2.27,6.19-3.62,7.15-4.5,1.14-1,4.58-2.54,5.83-3.24a52.45,52.45,0,0,0,6.59-4c2.77-2,5.27-1.58,7.71-4,1.17-1.15,1.13-1.39,2.65-2.12,1.35-.65,2.31-1.49,3.55-2.15s4-4.13,7.28-3.82a43.23,43.23,0,0,1,4.55.76c1.09,0.23,2.34-.1,3.8.24,2.2,0.52,3.51,1.4,5.07,1.78,1.06,0.26,3.87.56,5.5,1,2.28,0.64,6.73,1.84,9.32,2.39,2,0.42,4.47,1.36,6.24,1.68,2.54,0.45,3.58.08,6.29,0.64,1.64,0.34,5,1.59,6.54,2s4,0.43,3.91,1.32C97.92,75.33,87.22,83.28,85,84.91c-6,4.43-14.37,14.18-22.12,14.89-4.25.39-8.39-1.54-12.25-3.1a96.45,96.45,0,0,0-13.48-4.48c-1.07-.26-8.22-0.55-10.18-1-1.53-.36-9.26-3.17-11.7-3.69s-4.95-.29-7.38-0.65C7.25,86.76,3.92,86.4,6.12,84.13Z" transform="translate(-0.12 -0.13)"/><path class="cls-4" d="M5,12.86c1.5-1.55,5.35-4,17.56-6.14,3.2-.34,5.06-0.43,8-2.14a33.94,33.94,0,0,1,5.38-2.3C37.52,1.76,41.44-.3,44.6.2,54.8,1.24,65.74,2.76,76,3.7c5.38,0.49,8.44-.38,15.17,2.85,2.43,1.16-7.3,5.58-12.15,8C74.37,16.92,70,20.16,65,21.81c-10.06,3.33-20.89-.9-30.84-2.78-9.62-1.82-19.29-3-29-4C3.87,14.87,3.74,14.14,5,12.86Z" transform="translate(-0.12 -0.13)"/><path class="cls-5" d="M95,72c4.36,0.34-.53,3.78,0,3.78,4.3-2.06,3.79-7,3.31-10.49-0.12-.85,0,7.8-4.16,5.55a32.8,32.8,0,0,0-6.54-2c-2.71-.56-3.74-0.18-6.29-0.64-1.77-.32-4.27-1.26-6.24-1.68-2.58-.55-7-1.74-9.32-2.39-1.63-.46-4.45-0.77-5.5-1-1.55-.38-2.87-1.26-5.07-1.78-1.46-.34-2.72,0-3.8-0.24a43.23,43.23,0,0,0-4.55-.76,4.43,4.43,0,0,0-.61,0A5.25,5.25,0,0,0,49,61.73c1.34,0.3,2.69,1.08,4,1.37,1.68,0.36,3.37.22,5,.56a63.75,63.75,0,0,1,6.79,2c1.7,0.49,4.28,1,6.66,1.39,1.45,0.26,3.22,1.09,5.41,1.52s4.88,0.47,6.34.81,2.9,1,4.36,1.22,2.91,0.06,4.3.55A25.14,25.14,0,0,0,95,72Z" transform="translate(-0.12 -0.13)"/><path class="cls-6" d="M94.69,70.9c-4.53,1.71-8.64-5.17-10.94-14.14a8.62,8.62,0,0,1-2,1.46C77.63,59,73.65,64.79,68.47,64s-1.23,18.56-1.63,29c-0.34,9,3.95-2,28.34-19.86,1.53-1.12,2.25-1.65,2.46-3.39C96.74,70.11,95.77,70.49,94.69,70.9Z" transform="translate(-0.12 -0.13)"/><path class="cls-7" d="M49.55,53.56c-1.52-4.16-1.19-9.65-1.75-14-0.24-1.87-.08-13.43-0.54-21.79h0V17.68c-0.05-1-.12-1.93-0.19-2.8l0-.33c0-.31-0.06-0.62-0.09-0.91l0-.37c0-.27-0.06-0.53-0.1-0.78l0-.18h0c-0.08-.61-0.18-1.14-0.28-1.6,0-.11,0-0.22-0.07-0.32s-0.05-.18-0.08-0.27-0.06-.2-0.09-0.29l-0.08-.2-0.11-.22L46,9.25a1,1,0,0,0-.12-0.14L45.78,9A0.37,0.37,0,0,0,45.64,9H45.55a0.44,0.44,0,0,0-.16.06l-0.08,0a1.31,1.31,0,0,0-.26.28,6,6,0,0,0-.85,2.07h0v0l0,0.09c-0.06.24-.11,0.5-0.16,0.77l0,0.25c0,0.29-.1.59-0.14,0.9v0.06c0,0.34-.08.69-0.11,1.05l0,0.31q0,0.46-.07,1V16c0,0.39,0,.79-0.06,1.2,0,0.11,0,.23,0,0.34s0,0.29,0,.44h0c-0.31,11.41,1.75,29.69.14,34-0.52,1.4-7.58,14.92-6.33,15.7,4.64-2.43,3.51-5.8,9-6,0.32-2.48,9.38,2.59,11.3,1.07C56.94,60.46,51.08,57.74,49.55,53.56Z" transform="translate(-0.12 -0.13)"/><path class="cls-8" d="M62.39,77.94c-2.65.3-20.69-1.77-16.92,4.26,1.51,2.41,4,2.86,1.55,5.72-1.56,1.82-4.73,3.28-1.34,4.86,2.79,1.3,6.25,1.32,9.17,2.46a28.75,28.75,0,0,0,9.36,1.36C66.51,96.6,67.66,77.35,62.39,77.94Z" transform="translate(-0.12 -0.13)"/><path class="cls-9" d="M49,57.8a10.1,10.1,0,0,1,2.35,3.43c-2.74-.62-2.6-3-6-3.07-0.35,1.37-3,2.51-3.93,2.26,2.31-5.2,3.4-5.07,3.79-10.81,0.34-5.16.35-12.29,0.56-17.48C47.89,38.5,45,51.15,49,57.8h0Z" transform="translate(-0.12 -0.13)"/><path class="cls-10" d="M5.62,73c0.09-7.48-5.55-27.6-2.22-27.6,0.45,0,1.19,15.05,4.73,23.72C10.86,75.76,14,79.21,16.06,82c4.61,6.35,23,5.36,23.47,8.8S21,88.34,18.37,88C9.25,86.85,5.47,85,5.62,73Z" transform="translate(-0.12 -0.13)"/><path class="cls-11" d="M39.53,90.78c-0.46-3.44-18.85-2.45-23.47-8.8-0.62-.85-1.35-1.77-2.14-2.82a5.49,5.49,0,0,0-.64.48c-0.8.72-3.68,1.78-5.9,3.42,1.39,2.4,3.65,3.55,6.89,4.27,0.34,0,.68.1,1,0.18l0.52,0.13c0.8,0.14,1.66.26,2.57,0.38C21,88.34,40,94.22,39.53,90.78Z" transform="translate(-0.12 -0.13)"/><path class="cls-12" d="M10.54,84.26c7.61,3.51,25.53,8.38,22.43,5.18C29.61,86,10.15,91.84,6.5,71.09,6.94,75.21,4.8,81.61,10.54,84.26Z" transform="translate(-0.12 -0.13)"/><path class="cls-9" d="M2.82,15.6c1.63-1.68,3.43-4.56,7-5,0.86-.12-3.78,4.65-2.08,5.34C12.12,17.71,28.5,19,40.77,19.77c6.38,0.39,15.47-1.63,19.38,0C63,21,79.07,12.41,88.24,9.36,92.31,8,85.49,5.24,86.35,5c2-.45,7.24,3.07,7.86,3.58,4.54,3.79,6.21,2.14,5,16.16-0.48,5.66,2.29-17-10.14-12.63-7.47,2.62-21.07,5.51-23,12.77C65.49,27.35,67.35,44,66,61.73c-1,13.09.66,26.74,0,33.44-0.37,3.94,6.56-1.78,6.47-1.21-0.22,1.52-5.3,5.09-7.67,5.44-2.64.39-3.29,0.43-9-1.27-0.61-.18,9.89,1.15,9.2-2.87-0.5-2.9-.32-7.08-0.5-11.28C64,69.32,64,49.49,63.83,46.56c-0.66-13.89-1.26-21.79-15.29-24.16-13.48-2.28-22-1.14-35.43-3.33C5.89,17.48.46,24.13,1.79,33.58,1.79,33.58-1.3,19.84,2.82,15.6Z" transform="translate(-0.12 -0.13)"/><path class="cls-9" d="M32.93,19.45c-9-.53-14.57-1.7-23.78-2.14C4.59,17.09,6,15.74,5,16c-3.36.78-7.17,9.22-.35,3.56,2.57-2.13,28.66,1.66,30.12.82S32.93,19.45,32.93,19.45Z" transform="translate(-0.12 -0.13)"/><path class="cls-13" d="M50.56,20c2.67,0.4,6,.35,10.44,3.85,3.64,2.86,5.59,13.55,3.37,11-1.4-1.6-.9-6.45-4.15-8.83-3.51-2.57-9.68-4.22-11-4.66S47.33,19.48,50.56,20Z" transform="translate(-0.12 -0.13)"/><path class="cls-13" d="M90.51,8.37c-1,.13.16,0.58-4.23,2.54C83.78,12,71.93,16.31,68.35,18.1a20.59,20.59,0,0,1-9.81,2.37c-1.62.08,3.25,1.64,6.58,7.78-1.93-8.12,7.22-11.07,13.7-12.88a63.06,63.06,0,0,0,8.89-3C93,9.86,97.42,15.7,98,15.17,100.1,13.09,92.28,8.15,90.51,8.37Z" transform="translate(-0.12 -0.13)"/><path class="cls-9" d="M65.6,57.86c-0.34,5.8.13,19.22-.58,19.22s-0.62-11.37-.6-21.78c0-9.18-1.06-18.09-.21-19.52C66,32.72,66,51.08,65.6,57.86Z" transform="translate(-0.12 -0.13)"/><path class="cls-14" d="M16.41,18.75c0.37,0.17-4.53-.15-8.31-0.4-4.34-.29-5.64,2.93-5.93,2.18C0.69,16.67,14,17.63,16.41,18.75Z" transform="translate(-0.12 -0.13)"/><path class="cls-14" d="M33.78,20c0.9-.36-13-1.84-12.41-1.2s5.6,0.56,7.25.88S32.43,20.55,33.78,20Z" transform="translate(-0.12 -0.13)"/><path class="cls-3" d="M82.07,9.48c-4.6,1.8-16.27,1-14.8,1.25,12,1.68,23.9.64,18.55-4.63C83.2,3.52,87.35,7.41,82.07,9.48Z" transform="translate(-0.12 -0.13)"/><path class="cls-15" d="M62.89,70.75q0-.53,0-1.06c0-.11,0-0.22,0-0.33q0-.61,0-1.22V68q0-.7,0-1.41V66.32q0-.55,0-1.09V64.72q0-.42,0-0.85V63.59h0c-0.27-10.39-1-20.52-1.54-26C61,35,61.21,49.1,60.88,63.28h0q0,1.1-.06,2.21h0q0,1-.06,2.06V67.8q0,1-.07,1.9v0.35q0,0.92-.08,1.83v0.31c0,0.6-.06,1.19-0.09,1.78v0.25q0,0.83-.09,1.63l0,0.32c0,0.55-.07,1.08-0.11,1.6l0,0.38q-0.06.77-.12,1.5l0,0.35,0,0.39c0,0.47-.09.92-0.13,1.36l0,0.37c0,0.4-.09.8-0.13,1.17,0,0.15,0,.29-0.06.44,0,0.34-.09.67-0.14,1s-0.05.32-.08,0.48-0.09.55-.13,0.8-0.07.34-.1,0.51-0.08.39-.12,0.56l0,0.09c0,0.17-.08.31-0.12,0.46s-0.07.28-.11,0.41l0,0.09c-0.05.16-.1,0.3-0.16,0.44s-0.06.18-.09,0.26l0,0.06v0a3.46,3.46,0,0,1-.27.51c-0.22.32-.43,0.62-0.64,0.91l-0.23.3-0.4.51-0.27.32-0.35.4-0.29.3-0.32.32-0.3.27L55.16,93l-0.3.24-0.29.21-0.31.21L54,93.85,53.66,94c-5,2.61-9.44-2.62-15.19-3-1.73-.11,4.13,2.22,8.93,3.79s10,2.85,11.14,2.4A2,2,0,0,0,58.88,97L59,97l0.22-.18,0.11-.11,0.2-.22,0.11-.13,0.2-.28,0.09-.13c0.09-.15.18-0.3,0.27-0.47v0l0.1-.22h0l0-.09,0.1-.21,0.08-.19,0.16-.42,0.06-.18,0-.15,0.12-.35L61,93.38l0.15-.53,0-.07,0-.09v0c0.07-.26.13-0.52,0.19-0.79v0c0-.17.07-0.34,0.11-0.51l0-.21,0-.1,0-.25c0-.21.08-0.43,0.12-0.65l0-.29,0-.19,0-.3,0-.18,0-.29q0.06-.39.11-0.8l0-.19V87.78c0.07-.56.14-1.14,0.2-1.74,0-.1,0-0.19,0-0.29V85.5q0-.43.08-0.87l0-.3c0-.21,0-0.42,0-0.64l0-.27,0-.26q0-.53.07-1.06V82c0-.11,0-0.22,0-0.33s0-.24,0-0.37h0c0-.61.07-1.21,0.09-1.83V79.22q0-.53,0-1.07V77.87q0-.53,0-1.06V76.54q0-.64,0-1.29v0q0-1.37,0-2.78c0-.08,0-0.17,0-0.25q0-.55,0-1.11Q62.89,70.93,62.89,70.75Z" transform="translate(-0.12 -0.13)"/><path class="cls-12" d="M64.79,49.15c-0.21-5.34-.58-10-0.09-9.52,1,1,.88,23.38.35,22.25C64.77,61.29,65,54.86,64.79,49.15Z" transform="translate(-0.12 -0.13)"/><path class="cls-16" d="M64.91,67.1c0.32-1.37.46,6.2,0.2,7S64.37,69.4,64.91,67.1Z" transform="translate(-0.12 -0.13)"/><path class="cls-3" d="M51.85,17.85a72.13,72.13,0,0,0,12.37-1.56C67,15.5,76.9,12.39,80.5,10.82s-13.56,6.75-16.4,7.36S51.85,17.85,51.85,17.85Z" transform="translate(-0.12 -0.13)"/><path class="cls-17" d="M95.79,73.65l0,0,0.38-.43,0.1-.12,0.18-.23,0.07-.1a0.71,0.71,0,0,0,.07-0.14,0.3,0.3,0,0,0,0-.05,0.05,0.05,0,0,0-.06-0.07,4.82,4.82,0,0,0-.61.09h0l-0.16,0h0l-0.34.09-0.14,0L95,72.83l-0.09,0-0.19.08L94.6,73l-0.32.15-0.14.07-0.28.15-0.1.06-0.42.25-0.17.1-0.11.07-0.07,0L92.75,74h0l-0.13.09-0.08.06q-0.43.3-.87,0.64l-0.09.06L91.51,75l0,0c-0.7.54-1.41,1.15-2.12,1.79l-0.07.07c-0.88.79-1.78,1.63-2.68,2.46l-0.28.26L85.78,80,85,80.73,84.77,81l-1,.87L83.5,82l-0.79.64-0.31.24c-0.35.27-.69,0.52-1,0.76l-0.17.11q-0.43.29-.86,0.54l-0.46.27-0.18.1c-0.24.13-.48,0.24-0.72,0.34l-0.15.06-0.56.21-0.2.07c-0.21.07-.42,0.12-0.63,0.16l-0.21,0a5.72,5.72,0,0,1-.63.08H76.45a4.94,4.94,0,0,1-.57,0H75.74a4.63,4.63,0,0,1-.63-0.12l-0.17,0a4.69,4.69,0,0,1-.63-0.23l-0.13-.06a5.24,5.24,0,0,1-.6-0.35l-0.06,0a6.33,6.33,0,0,1-.63-0.51l-0.13-.12a8.1,8.1,0,0,1-.6-0.64l-0.11-.14c-0.21-.25-0.41-0.52-0.61-0.82a1.48,1.48,0,0,1-.15-0.32c0-.05,0-0.12-0.05-0.18s-0.06-.19-0.08-0.31,0-.18-0.05-0.28,0-.22-0.06-0.35,0-.25-0.05-0.37,0-.25-0.05-0.39,0-.31,0-0.46,0-.27,0-0.42,0-.37,0-0.56,0-.29,0-0.44,0-.43,0-0.65l0-.43c0-.25,0-0.51,0-0.77l0-.39q0-.43,0-0.88l0-.35q0-.49,0-1V73.77c-0.09-2.52-.17-5.34-0.28-8.14v0q0-.72-0.06-1.44V64h0c-0.31-7.46-.88-14.41-2.55-14.82-0.12,4.48,0,9.64.1,14.82h0q0,0.69,0,1.38v0.41l0,1.13,0,0.5q0,0.68,0,1.36v0.35l0,1.24,0,0.51L68,72l0,0.43,0,0.9c0.07,1.83.13,3.62,0.2,5.32h0l0.05,1.48v0q0,0.73,0,1.44h0c0,0.44,0,.87,0,1.29V83c0,0.85,0,1.67.07,2.45v0.19c0,0.36,0,.7,0,1v0.08q0,0.56,0,1.08V88c0,0.31,0,.6,0,0.89V89c0,0.62,0,1.18,0,1.69V90.9q0,0.32,0,.61v0.11q0,0.33,0,.62v0.1c0,0.15,0,.29,0,0.43v0.13c0,0.15,0,.3-0.06.42a2.5,2.5,0,0,0,0,.3s0,0.05,0,.08,0,0.12,0,.17v0.08a0.82,0.82,0,0,0,0,.14l0,0.06a0.63,0.63,0,0,0,.08.15h0l0,0,0.09,0.08,0.07,0,0.08,0h0.09l0.09,0h0.55l0.19,0,0.07,0,0.08,0,0.1,0h0.08l0.15-.06c0.2-.07.42-0.16,0.65-0.26l0.09,0h0l0.36-.18,0.3-.15,0.85-.48L72.6,93l0.68-.42,0.42-.28,0.62-.41,0.46-.31,0.68-.48,0.44-.31L77,90l0.4-.3,0.81-.61,0.52-.4,0.72-.56L80,87.69l0.75-.6,0.51-.41,1.13-.92,0.49-.41,0.86-.71,0.55-.46L85,83.56l0.56-.47,0.74-.64L86.82,82l1.05-.92,0.42-.37L89.13,80l0.46-.41,0.67-.6,0.45-.41L91.35,78l0.38-.35,0.92-.86,0.15-.14,0.73-.7,0.29-.28,0.51-.5,0.26-.26L95,74.42l0.21-.21Z" transform="translate(-0.12 -0.13)"/><path class="cls-18" d="M81.25,83.77c0.2,0.92,1.15.28,1.79-.11,0.9-.55,1.76-1.47,2.65-2.09s1.76-.61,2.54-1.42c0.52-.54,1.08-2.44,2.08-4.22C87.37,78.43,84.27,81.72,81.25,83.77Z" transform="translate(-0.12 -0.13)"/></svg>