<?xml version="1.0" encoding="iso-8859-1"?>
<!-- Generator: Adobe Illustrator 19.0.0, SVG Export Plug-In . SVG Version: 6.00 Build 0)  -->
<svg xmlns="http://www.w3.org/2000/svg" xmlns:xlink="http://www.w3.org/1999/xlink" version="1.1" id="Capa_1" x="0px" y="0px" viewBox="0 0 455 455" style="enable-background:new 0 0 455 455;" xml:space="preserve" width="512" height="512">
<g>
	<path style="fill:#FFBC99;" d="M435.01,147.32v12c0,4.142,3.358,7.5,7.5,7.5s7.5-3.358,7.5-7.5v-10L435.01,147.32z"/>
	<polygon style="fill:#FF9A66;" points="347.547,145.466 338.456,133.534 235,212.356 235,139.488 220,139.488 220,212.358    116.547,133.538 107.456,145.47 220,231.215 220,385.488 235,385.488 235,231.214  "/>
	<path style="fill:#FFBC99;" d="M227.5,0c-8.284,0-15,6.716-15,15v35h30V15C242.5,6.716,235.784,0,227.5,0z"/>
	<path style="fill:#FFBC99;" d="M220,139.32v20c0,4.142,3.358,7.5,7.5,7.5s7.5-3.358,7.5-7.5v-20H220z"/>
	<path style="fill:#FFBC99;" d="M112.495,139.32v20c0,4.142,3.358,7.5,7.5,7.5s7.5-3.358,7.5-7.5v-20H112.495z"/>
	<path style="fill:#FFBC99;" d="M327.505,139.32v20c0,4.142,3.358,7.5,7.5,7.5s7.5-3.358,7.5-7.5v-20H327.505z"/>
	<path style="fill:#FFBC99;" d="M4.99,149.32v10c0,4.142,3.358,7.5,7.5,7.5s7.5-3.358,7.5-7.5v-12L4.99,149.32z"/>
	<rect x="212.5" y="375.659" style="fill:#FFBC99;" width="30" height="79.341"/>
	<polygon style="fill:#FF382E;" points="220,40 141.414,139.32 122.495,149.32 4.99,149.32 212.5,40  "/>
	<polygon style="fill:#FF8882;" points="227.5,40 237.5,139.32 227.5,149.32 112.495,149.32 220,40  "/>
	<polygon style="fill:#FF382E;" points="352.505,139.32 342.505,149.32 227.5,149.32 227.5,40 235,40  "/>
	<polygon style="fill:#FF8882;" points="450.01,149.32 342.505,149.32 235,40 242.5,40  "/>
</g>















</svg>
